PathFileType	4	(X/Y/Z)	C:/Users/beibeiliu/ov580/test_trc/User1\sequence.15_training_dense_left.trc
DataRate	CameraRate	NumFrames	NumMarkers	Units	OrigDataRate	OrigDataStartFrame	OrigNumFrames
120	120	18	19	mm	120	205	273
Frame#	Time	ThumbCMC			ThumbMCP			ThumbIP			ThumbTip			IndexMCP			IndexPIP			IndexTip			MiddleMCP			MiddlePIP			MiddleTip			RingMCP			RingPIP			RingTip			PinkyMCP			PinkyPIP			PinkyTip			BackHand1			BackHand2			BackHand3	
		X0	Y0	Z0	X1	Y1	Z1	X2	Y2	Z2	X3	Y3	Z3	X4	Y4	Z4	X5	Y5	Z5	X6	Y6	Z6	X7	Y7	Z7	X8	Y8	Z8	X9	Y9	Z9	X10	Y10	Z10	X11	Y11	Z11	X12	Y12	Z12	X13	Y13	Z13	X14	Y14	Z14	X15	Y15	Z15	X16	Y16	Z16	X17	Y17	Z17	X18	Y18	Z18	
204	1.7	-157.486	77.5596	35.3854	-144.643	54.6248	17.0245	-133.904	42.8209	1.19084	-117.097	28.9232	-12.501	-151.024	100.054	-50.024	-156.028	103.029	-74.6716	-158.553	104.251	-101.708	-185.002	90.333	-56.546	-194.778	56.6197	-59.3796	-197.497	52.2132	-19.306	-205.03	93.3727	-52.6696	-214.06	58.5934	-50.4213	-214.067	52.6419	-20.8031	-227.256	115.147	-36.9815	-234.324	115.353	-56.1061	-240.067	124.107	-75.745	-197.019	124.026	2.66703	-201.894	126.855	37.3776	-168.536	113.686	24.1436	
205	1.70833	-154.322	77.3551	35.0778	-145.838	56.8212	20.0797	-129.794	45.7557	-2.03754	-114.742	32.4382	-7.42891	-155.886	101.308	-47.0976	-154.441	102.698	-76.0004	-161.78	106.36	-100.679	-184.226	90.7209	-58.022	-199.373	57.8013	-59.6475	-198.334	53.15	-18.9717	-211.607	94.1089	-56.0469	-219.311	60.3293	-51.9574	-213.321	52.1075	-22.9631	-228.499	117.199	-42.3242	-237.004	117.037	-56.8173	-238.25	125.694	-76.351	-198.082	127.142	1.61313	-207.538	129.777	36.2574	-171.664	115.103	22.5252	
206	1.71667	-157.271	79.6139	32.4642	-146.386	58.9628	17.4996	-131.35	48.0614	-1.50717	-111.227	34.9619	-8.18808	-160.522	103.157	-50.2532	-158.122	103.853	-79.5361	-162.833	106.842	-103.272	-187.233	89.8485	-60.1085	-202.982	58.6096	-59.4795	-199.203	52.1075	-22.01	-213.191	97.1291	-54.8765	-219.983	61.9163	-54.4419	-218.047	55.599	-20.0152	-230.993	117.459	-38.5025	-238.295	117.904	-58.8002	-241.698	128.426	-81.6598	-199.052	127.901	-0.160266	-207.907	131.798	36.8058	-170.482	113.999	18.7145	
207	1.725	-159.355	79.8976	34.6841	-145.964	58.4019	19.1885	-127.57	48.3855	0.615457	-111.75	36.4432	-2.12166	-159.721	100.929	-52.7719	-159.484	101.034	-77.2581	-165.592	103.993	-101.853	-190.509	88.9171	-60.6213	-203.212	57.1952	-60.8882	-202.661	50.8688	-20.3632	-210.52	93.4168	-56.0482	-224.395	63.1554	-54.5345	-218.036	53.0676	-23.9413	-235.995	117.502	-40.8765	-242.631	118.854	-57.3334	-248.401	126.653	-79.5752	-200.854	125.96	0.552983	-206.143	131.359	33.4835	-173.548	113.646	22.0587	
208	1.73333	-160.152	77.5369	36.63	-146.6	59.2055	18.1458	-125.284	46.9409	4.43157	-107.818	35.1336	-1.52499	-162.791	98.6853	-52.6159	-159.368	98.7559	-79.0258	-167.24	101.68	-102.276	-191.474	88.4578	-59.5586	-203.155	54.0117	-59.6854	-203.954	49.6577	-18.0065	-215.887	94.0365	-55.521	-221.038	57.5472	-52.9075	-218.965	50.8425	-20.2835	-232.184	115.282	-42.7356	-242.294	115.575	-61.3339	-246.198	123.591	-76.8795	-202.594	123.609	1.79588	-208.43	128.674	34.5238	-175.694	112.358	20.1451	
209	1.74167	-160.304	75.4946	36.0195	-146.674	56.2932	23.1528	-123.687	45.0144	5.01334	-108.778	34.4542	2.34026	-161.41	93.9068	-49.8636	-163.55	94.8342	-78.1139	-170.383	98.8339	-104.209	-193.707	84.9846	-59.9446	-206.072	49.3936	-58.3649	-201.223	43.0806	-19.3374	-212.49	90.1751	-55.5093	-221.815	55.8508	-55.5624	-218.692	47.1237	-20.2425	-235.564	112.592	-41.9825	-244.74	113.555	-59.0202	-248.673	121.617	-82.1032	-202.714	122.842	-0.320787	-203.971	125.247	30.2279	-174.846	111.013	20.8913	
210	1.75	-158.523	72.9945	33.7002	-146.019	52.059	23.0037	-126.071	41.462	7.78656	-106.021	30.1221	6.33422	-158.107	87.9393	-54.0562	-159.922	88.543	-80.3829	-169.18	92.5665	-102.211	-192.712	77.3328	-60.7865	-203.758	46.5234	-59.6479	-203.712	41.6254	-16.2252	-216.026	84.5771	-55.4423	-221.724	52.7415	-54.4711	-219.195	42.9231	-21.5093	-235.521	110.319	-40.836	-243.257	109.721	-59.9013	-245.284	117.09	-81.8739	-199.851	119.291	1.41402	-207.173	122.188	34.9276	-172.196	105.027	17.0533	
211	1.75833	-160.718	68.3868	36.2144	-144.528	47.9527	21.6631	-122.632	35.4184	11.0733	-109.266	25.1962	9.67363	-156.882	81.2176	-53.5326	-161.242	81.9135	-76.4656	-167.69	85.9457	-104.222	-192.701	73.2401	-58.8881	-204.326	40.7859	-58.2751	-204.654	37.1074	-15.2805	-216.047	76.8192	-56.8076	-223.878	44.167	-50.9665	-219.244	38.4892	-16.786	-233.354	104.557	-44.1885	-239.652	103.386	-58.1614	-242.29	111.42	-79.9863	-201.561	115.456	-2.22503	-205.885	118.851	30.7338	-168.434	100.379	18.959	
212	1.76667	-155.149	62.8562	38.3441	-142.009	42.9957	30.0931	-122.515	31.4681	13.0638	-108.352	20.2906	11.601	-157.385	75.3924	-51.7106	-158.563	75.5264	-75.2018	-163.725	77.0738	-101.905	-186.812	66.8803	-56.2634	-206.525	36.1171	-55.321	-202.335	31.0487	-15.9146	-212.258	73.7912	-54.4683	-222.075	39.4566	-49.0442	-220.246	33.5678	-19.6534	-229.724	98.633	-38.8494	-238.402	99.0585	-57.811	-245.24	106.127	-77.2011	-201.755	109.951	0.0835295	-204.785	116.082	34.1707	-173.493	96.0237	18.0128	
213	1.775	-160.312	63.1817	39.7291	-141.736	40.2205	30.287	-123.866	30.763	13.6254	-102.819	19.4078	13.1245	-158.592	74.1478	-52.62	-157.868	72.5757	-75.2101	-166.497	74.8391	-98.5375	-190.437	62.3503	-59.2113	-203.653	33.7252	-57.1771	-205.861	29.7664	-17.2266	-213.109	72.5474	-53.7026	-222.427	38.2624	-50.5039	-218.588	30.2315	-20.1561	-230.014	95.7126	-40.9212	-236.956	96.3557	-59.6522	-243.639	106.847	-79.4114	-201.753	108.052	-0.366243	-205.42	112.562	33.3872	-170.515	92.6997	22.2588	
214	1.78333	-158.863	63.2414	39.295	-141.82	42.3318	25.6733	-122.668	31.6876	12.5864	-107.003	21.1923	12.5374	-157.545	74.6356	-51.62	-161.23	73.7961	-74.9567	-164.475	73.3816	-102.655	-188.578	66.0164	-57.0357	-200.636	30.3163	-55.2555	-200.493	27.9025	-16.6388	-214.38	73.1095	-53.367	-224.202	40.9044	-52.7486	-219.993	32.8445	-18.1117	-231.889	96.2774	-40.1152	-240.815	96.7439	-59.936	-246.788	106.379	-80.5008	-199.301	108.122	-1.63728	-203.882	111.337	33.4434	-171.871	96.3481	20.4429	
215	1.79167	-160.058	65.008	36.303	-141.931	45.9624	26.0091	-121.703	35.7354	12.671	-106.832	26.4503	12.3844	-159.995	77.5982	-47.1971	-161.294	77.4043	-73.5849	-165.948	76.7843	-99.4358	-191.768	67.4595	-59.3891	-201.344	36.5613	-58.9853	-200.855	31.0344	-16.3278	-212.817	72.4968	-57.1629	-225.4	43.5759	-53.0831	-218.631	33.1906	-21.9875	-234.87	98.9365	-41.2976	-240.129	98.8686	-57.2127	-246.099	107.683	-80.5596	-202.838	108.675	-0.75493	-202.648	113.753	35.5358	-171.036	97.4712	17.9352	
216	1.8	-161.579	69.8583	39.28	-141.067	50.9783	22.4962	-121.235	42.6416	12.9613	-103.24	34.8596	9.09433	-159.142	83.1088	-49.8446	-160.985	82.8627	-78.8057	-164.019	83.0326	-101.445	-187.429	72.9803	-58.7663	-200.923	37.7291	-59.0388	-202.976	37.3238	-18.8191	-212.572	80.1536	-54.5758	-224.048	46.7932	-53.946	-217.325	37.871	-21.6056	-232.402	102.463	-42.4189	-240.526	102.594	-57.5228	-245.349	110.674	-81.5845	-200.015	112.122	-1.18745	-207.605	116.824	31.6735	-173.863	100.739	18.2539	
217	1.80833	-157.5	73.1451	34.596	-140.259	56.9918	21.4995	-122.406	49.2112	11.8275	-104.263	42.4004	6.69888	-159.076	88.4494	-52.7655	-161.762	89.0016	-75.3322	-162.884	88.5093	-102.99	-190.909	76.2991	-63.6014	-200.995	44.5528	-61.4626	-202.169	40.7359	-21.415	-214.516	82.4368	-58.0525	-225.327	52.6605	-56.1891	-216.142	43.1786	-21.8781	-234.096	105.932	-40.1581	-245.026	108.044	-57.2504	-248.625	114.459	-83.4336	-201.764	116.74	-1.71838	-208.895	118.863	33.2142	-175.511	105.192	17.5329	
218	1.81667	-159.881	78.1179	32.8129	-142.75	62.5327	22.2741	-120.951	57.1226	9.00642	-102.186	49.1621	7.50089	-160.911	95.6375	-52.2698	-162.54	96.2883	-76.6261	-163.087	96.9271	-104.656	-192.874	84.8348	-64.7641	-203.499	53.463	-63.7103	-201.768	48.2685	-22.6454	-215.667	91.514	-57.6216	-222.402	56.2104	-57.9084	-219.928	49.4432	-27.1797	-236.772	112.488	-39.5567	-241.775	113.467	-62.2167	-247.719	122.801	-84.3501	-204.009	121.609	-1.65818	-210.649	125.47	31.1937	-176.754	111.69	19.2989	
219	1.825	-161.852	81.8884	32.2976	-141.799	66.9477	21.7551	-117.837	63.219	6.27975	-104.134	54.6964	6.42121	-160.221	102.205	-52.4878	-162.746	104.286	-77.802	-162.938	105.322	-108.302	-191.566	91.3119	-63.2905	-204.311	59.0756	-65.4924	-202.866	53.3715	-25.4157	-215.766	93.7949	-61.9994	-220.201	63.7703	-61.8198	-218.399	53.468	-27.2341	-233.68	116.239	-43.4537	-244.434	119.086	-59.6355	-246.233	126.981	-82.4423	-206.513	124.356	-3.26077	-209.324	127.998	31.0039	-178.152	114.597	15.5014	
220	1.83333	-160.466	84.817	32.8073	-141.402	71.5284	20.3334	-118.096	66.7607	9.89897	-101.422	61.5687	4.59008	-161.098	107.031	-53.9486	-160.11	108.826	-81.2564	-160.661	111.53	-104.676	-187.918	95.3302	-63.5366	-198.817	60.56	-66.8336	-197.824	55.9898	-25.3012	-215.095	98.3132	-64.0185	-222.623	67.6784	-62.8102	-217.837	56.8776	-31.8823	-238.482	121.718	-47.3044	-243.586	123.563	-61.0926	-246.954	131.991	-86.1864	-209.329	128.426	-5.72596	-209.474	127.387	28.1727	-176.042	116.767	14.6315	
221	1.84167	-159.279	86.8386	33.247	-138.743	74.4769	19.0583	-115.575	71.2387	6.38749	-98.5042	65.7302	5.9937	-161.57	110.493	-53.3646	-160.456	112.541	-78.5694	-161.094	115.601	-106.165	-187.126	97.6198	-66.0725	-201.03	63.5329	-66.4868	-198.927	59.0046	-25.3983	-211.485	101.329	-63.1081	-220.333	68.8043	-63.0459	-217.764	59.1299	-29.459	-234.749	122.735	-48.5528	-244.483	124.587	-62.7403	-251.649	134.077	-84.651	-206.48	129.231	-6.18928	-213.643	131.845	32.9257	-174.497	118.591	14.2301	
